{"title":"Like.Mike.2002.720p.WEB-DL.DD5.1.H264-FGT","uid":12018654,"size":3233551204,"categoryP":"video","categoryS":"hd___movies","magnet":"?xt=urn:btih:972a98abd6a63b93a3e0e3a17bb3e6ebef186329&amp;dn=Like.Mike.2002.720p.WEB-DL.DD5.1.H264-FGT&amp;tr=udp%3A%2F%2Ftracker.openbittorrent.com%3A80&amp;tr=udp%3A%2F%2Fopen.demonii.com%3A1337&amp;tr=udp%3A%2F%2Ftracker.coppersurfer.tk%3A6969&amp;tr=udp%3A%2F%2Fexodus.desync.com%3A6969","seeders":0,"leechers":0,"uploader":null,"files":3,"time":1434360147,"description":"Video\nID                                       : 1\nFormat                                   : AVC\nFormat/Info                              : Advanced Video Codec\nFormat profile                           : &lt;a class=&quot;__cf_email__&quot; href=&quot;/cdn-cgi/l/email-protection&quot; data-cfemail=&quot;541c3d333c1418677a65&quot;&gt;[email&amp;#160;protected]&lt;/a&gt;&lt;script data-cfhash='f9e31' type=&quot;text/javascript&quot;&gt;\n/* &lt;![CDATA[ */!function(){try{var t=&quot;currentScript&quot;in document?document.currentScript:function(){for(var t=document.getElementsByTagName(&quot;script&quot;),e=t.length;e--;)if(t[e].getAttribute(&quot;data-cfhash&quot;))return t[e]}();if(t&amp;&amp;t.previousSibling){var e,r,n,i,c=t.previousSibling,a=c.getAttribute(&quot;data-cfemail&quot;);if(a){for(e=&quot;&quot;,r=parseInt(a.substr(0,2),16),n=2;a.length-n;n+=2)i=parseInt(a.substr(n,2),16)^r,e+=String.fromCharCode(i);e=document.createTextNode(e),c.parentNode.replaceChild(e,c)}t.parentNode.removeChild(t);}}catch(u){}}()/* ]]&gt; */&lt;/script&gt;\nFormat settings, CABAC                   : No\nFormat settings, ReFrames                : 2 frames\nCodec ID                                 : V_MPEG4/ISO/AVC\nDuration                                 : 1h 40mn\nBit rate                                 : 3 841 Kbps\nWidth                                    : 1 278 pixels\nHeight                                   : 720 pixels\nDisplay aspect ratio                     : 16:9\nFrame rate mode                          : Constant\nFrame rate                               : 23.976 fps\nColor space                              : YUV\nChroma subsampling                       : 4:2:0\nBit depth                                : 8 bits\nScan type                                : Progressive\nBits/(Pixel*Frame)                       : 0.174\nStream size                              : 2.68 GiB (89%)\nTitle                                    : Like.Mike.2002.720p.WEB-DL.DD5.1.H264-FGT\nLanguage                                 : English\nDefault                                  : Yes\nForced                                   : No\nColor range                              : Limited\nColor primaries                          : BT.709\nTransfer characteristics                 : BT.709\nMatrix coefficients                      : BT.709\n\nAudio\nID                                       : 2\nFormat                                   : AC-3\nFormat/Info                              : Audio Coding 3\nMode extension                           : CM (complete main)\nFormat settings, Endianness              : Big\nCodec ID                                 : A_AC3\nDuration                                 : 1h 40mn\nBit rate mode                            : Constant\nBit rate                                 : 384 Kbps\nChannel(s)                               : 6 channels\nChannel positions                        : Front: L C R, Side: L R, LFE\nSampling rate                            : 48.0 KHz\nBit depth                                : 16 bits\nCompression mode                         : Lossy\nStream size                              : 275 MiB (9%)\nTitle                                    : Like.Mike.2002.720p.WEB-DL.DD5.1.H264-FGT\nLanguage                                 : English\nDefault                                  : Yes\nForced                                   : No\n\nText\nID                                       : 3\nFormat                                   : UTF-8\nCodec ID                                 : S_TEXT/UTF8\nCodec ID/Info                            : UTF-8 Plain Text\nLanguage                                 : English\nDefault                                  : Yes\nForced                                   : No\n\nMenu\n00:00:00.000                             : en:No Backing Down (Main Title)\n00:03:18.000                             : en:Orphan Candy\n00:07:02.000                             : en:Michael Jordan's Sneakers\n00:09:14.000                             : en:Super-Charged Shoes\n00:13:40.000                             : en:Calvin's Big Score\n00:19:48.000                             : en:A Four-and-a-Half-Foot Player\n00:22:40.000                             : en:The New Knight\n00:24:53.000                             : en:Calvin Takes the Shot\n00:30:38.000                             : en:Calvin's Contract\n00:32:11.000                             : en:Tracy's New Roommate\n00:34:13.000                             : en:Food for Free\n00:37:11.000                             : en:Two Orphans\n00:40:46.000                             : en:Basketball\n00:44:49.000                             : en:It's the Sneakers!\n00:46:36.000                             : en:A Trip with Tracy\n00:50:27.000                             : en:The Designated Driver\n00:55:14.000                             : enrospective Parents\n01:00:56.000                             : en:The Geometry Lesson\n01:04:08.000                             : en:A Winning Combination\n01:06:24.000                             : en:Out of Sync\n01:08:50.000                             : en:Bittleman's Bet\n01:13:14.000                             : en:Something Pretty Big\n01:15:20.000                             : en:Busting Bittleman\n01:19:27.000                             : en:Orphans on the Move\n01:22:21.000                             : en:Here Come the Knights\n01:23:57.000                             : en:A Winner on His Own\n01:29:34.000                             : en:Going Home\n01:34:03.000                             : en:End Titles","torrent":{"xt":"urn:btih:972a98abd6a63b93a3e0e3a17bb3e6ebef186329","amp;dn":"Like.Mike.2002.720p.WEB-DL.DD5.1.H264-FGT","amp;tr":["udp%3A%2F%2Ftracker.openbittorrent.com%3A80","udp%3A%2F%2Fopen.demonii.com%3A1337","udp%3A%2F%2Ftracker.coppersurfer.tk%3A6969","udp%3A%2F%2Fexodus.desync.com%3A6969"],"infoHash":"972a98abd6a63b93a3e0e3a17bb3e6ebef186329","infoHashBuffer":{"type":"Buffer","data":[151,42,152,171,214,166,59,147,163,224,227,161,123,179,230,235,239,24,99,41]},"announce":[],"urlList":[]}}